<svg xmlns="http://www.w3.org/2000/svg" width="33.07" height="30" viewBox="0 0 33.07 30">
  <g id="upload" transform="translate(0.001 0)">
    <path id="Tracé_3900" data-name="Tracé 3900" d="M26.706,8.326A10.347,10.347,0,0,0,6.413,8.32a7.243,7.243,0,0,0,.834,14.438h5.173a1.035,1.035,0,0,0,0-2.069H7.248a5.173,5.173,0,1,1,.061-10.347,1.034,1.034,0,0,0,1.028-.921,8.277,8.277,0,0,1,16.445,0,1.1,1.1,0,0,0,1.089.921,5.173,5.173,0,1,1,0,10.347H20.7a1.035,1.035,0,0,0,0,2.069h5.173a7.243,7.243,0,0,0,.835-14.431Zm0,0" transform="translate(0 0)" fill="#fff"/>
    <path id="Tracé_3901" data-name="Tracé 3901" d="M181.317,198.312a1.035,1.035,0,0,0,1.489-1.437l-.025-.025-4.388-4.389a1.035,1.035,0,0,0-1.463,0l0,0-4.388,4.389a1.035,1.035,0,1,0,1.438,1.488l.025-.025,2.623-2.624V208.71a1.035,1.035,0,1,0,2.069,0V195.688Zm0,0" transform="translate(-161.1 -179.744)" fill="#fff"/>
  </g>
</svg>
